<?xml version="1.0" encoding="UTF-8"?>
<svg enable-background="new 0 0 240.52 330.92" version="1.1" viewBox="0 0 240.52 330.92" xml:space="preserve" xmlns="http://www.w3.org/2000/svg"><defs><linearGradient id="i" x1="-44828" x2="-44252" y1="22705" y2="22688" gradientTransform="matrix(.253 0 0 -.253 11408 5761.9)" gradientUnits="userSpaceOnUse"><stop stop-color="#0288F7" offset="0"/><stop stop-color="#2EE2BD" offset="1"/></linearGradient></defs><style type="text/css">
	.st0{fill:url(#i);}
	.st1{fill:url(#h);}
	.st2{fill:url(#g);}
	.st3{fill:url(#f);}
	.st4{fill:url(#e);}
	.st5{fill:url(#d);}
	.st6{fill:url(#c);}
	.st7{fill:url(#b);}
	.st8{fill:url(#a);}
	.st9{fill:#2AC64B;}
	.st10{fill:#97CC1A;}
	.st11{fill:#666565;}
	.st12{fill:#00863F;}
	.st13{fill:#008A5A;}
	.st14{fill:#009550;}
	.st15{fill:#00983E;}
	.st16{fill:#009A37;}
	.st17{fill:#06CBF6;}
	.st18{fill:url(#j);}
</style><linearGradient id="h" x1="-44784" x2="-44925" y1="21856" y2="22206" gradientTransform="matrix(.253 0 0 -.253 11408 5761.9)" gradientUnits="userSpaceOnUse"><stop stop-color="#CB1918" offset="0"/><stop stop-color="#A2183D" offset=".388"/><stop stop-color="#902869" offset=".749"/><stop stop-color="#73358A" offset="1"/></linearGradient><linearGradient id="g" x1="-44855" x2="-44997" y1="21827" y2="22177" gradientTransform="matrix(.253 0 0 -.253 11408 5761.9)" gradientUnits="userSpaceOnUse"><stop stop-color="#CB1918" offset="0"/><stop stop-color="#A2183D" offset=".388"/><stop stop-color="#902869" offset=".749"/><stop stop-color="#73358A" offset="1"/></linearGradient><linearGradient id="f" x1="-44659" x2="-44800" y1="21906" y2="22257" gradientTransform="matrix(.253 0 0 -.253 11408 5761.9)" gradientUnits="userSpaceOnUse"><stop stop-color="#CB1918" offset="0"/><stop stop-color="#A2183D" offset=".388"/><stop stop-color="#902869" offset=".749"/><stop stop-color="#73358A" offset="1"/></linearGradient><linearGradient id="e" x1="-44367" x2="-44573" y1="22105" y2="21880" gradientTransform="matrix(.253 0 0 -.253 11408 5761.9)" gradientUnits="userSpaceOnUse"><stop stop-color="#ADD816" offset="0"/><stop stop-color="#DBD704" offset="1"/></linearGradient><linearGradient id="d" x1="-44523" x2="-44698" y1="21673" y2="21968" gradientTransform="matrix(.253 0 0 -.253 11408 5761.9)" gradientUnits="userSpaceOnUse"><stop stop-color="#E1282B" offset="0"/><stop stop-color="#E3402A" offset=".388"/><stop stop-color="#E76226" offset=".702"/><stop stop-color="#F19A0A" offset="1"/></linearGradient><linearGradient id="c" x1="-44512" x2="-44687" y1="21680" y2="21975" gradientTransform="matrix(.253 0 0 -.253 11408 5761.9)" gradientUnits="userSpaceOnUse"><stop stop-color="#E1282B" offset="0"/><stop stop-color="#E3402A" offset=".388"/><stop stop-color="#E76226" offset=".702"/><stop stop-color="#F19A0A" offset="1"/></linearGradient><linearGradient id="b" x1="-44541" x2="-44716" y1="21662" y2="21957" gradientTransform="matrix(.253 0 0 -.253 11408 5761.9)" gradientUnits="userSpaceOnUse"><stop stop-color="#E1282B" offset="0"/><stop stop-color="#E3402A" offset=".388"/><stop stop-color="#E76226" offset=".702"/><stop stop-color="#F19A0A" offset="1"/></linearGradient><linearGradient id="a" x1="-44638" x2="-44813" y1="21605" y2="21900" gradientTransform="matrix(.253 0 0 -.253 11408 5761.9)" gradientUnits="userSpaceOnUse"><stop stop-color="#E1282B" offset="0"/><stop stop-color="#E3402A" offset=".388"/><stop stop-color="#E76226" offset=".702"/><stop stop-color="#F19A0A" offset="1"/></linearGradient><linearGradient id="j" x1="-44670" x2="-44845" y1="21586" y2="21881" gradientTransform="matrix(.253 0 0 -.253 11408 5761.9)" gradientUnits="userSpaceOnUse"><stop stop-color="#E1282B" offset="0"/><stop stop-color="#E3402A" offset=".388"/><stop stop-color="#E76226" offset=".702"/><stop stop-color="#F19A0A" offset="1"/></linearGradient><g><path class="st9" d="m11.81 111.67c-4.04-1.84-7.54-3.26-10.4-4.33-0.6-4.49-1.04-8.99-1.31-13.51-0.22-3.72-0.08-7.39 0.36-10.99 2.43 0.4 5.87 1 10.15 1.83-0.42 5.11-0.46 10.49 0 16.17 0.29 3.63 0.69 7.24 1.2 10.83zm39.96 23.59c-10.22-7.5-19.82-13.31-28.16-17.77-1.69-10.39-2.41-20.69-1.78-30.49 7.71 1.7 16.83 3.9 26.86 6.69-0.66 13.11 0.57 27.21 3.08 41.57zm104.96 5.47c-0.1 1.13-0.23 2.28-0.35 3.43-13.96 7.29-27.86 17.12-40.35 30.37-4.04 4.28-7.72 8.58-11.09 12.86-3.78-4.78-7.81-9.62-12.09-14.48-1.92-2.17-3.84-4.28-5.78-6.34-3.21-21.5-5.25-42.71-5.63-62.59 24.85 8.82 51.68 20.79 75.29 36.75z"/><path class="st13" d="m14.86 63.78c-2.09 6.34-3.61 13.3-4.25 20.89-4.28-0.83-7.72-1.43-10.15-1.83 0.27-2.27 0.68-4.51 1.19-6.72 3.05-3.28 7.46-7.61 13.21-12.34z"/><path class="st14" d="m63.49 36.38c-7.35 13.48-13.24 31.65-14.73 55.89-0.02 0.47-0.05 0.95-0.07 1.42-10.03-2.79-19.14-4.98-26.85-6.69 0.01-0.33 0.04-0.64 0.06-0.97 0.96-12.71 4.71-24.37 10.38-34.72 8.77-5.41 19.16-10.67 31.21-14.93z"/><path class="st15" d="m156.73 140.73c-23.61-15.96-50.44-27.93-75.29-36.75-0.48-23.68 1.36-45.45 6.26-63.49 0.13-0.5 0.27-0.99 0.41-1.47 19.71 11.65 45.39 24.64 69.77 30.34 2.13 21.5 1.49 45.93-1.15 71.37z"/><path class="st16" d="m240.42 93.83c-0.6 10-2.03 19.9-4.25 29.8-2.81 0.11-6.05 0.29-9.64 0.6 1.58-7.63 2.74-15.44 3.38-23.39 2.14-26.76-6.51-47.14-16.51-61.37 2.93 0.83 5.71 1.65 8.3 2.45 11.23 14.24 19.9 32.54 18.72 51.91zm-24.99 31.69c-7.83 1.12-16.67 2.87-26 5.54 2.14-13.43 3.07-26.55 2.32-38.79-1.7-27.91-9.26-47.76-18.15-61.7 8.36 1.38 16.29 3.01 23.61 4.72 11.67 13.78 19.93 30.98 21.41 50.75 0.94 12.6-0.41 26.04-3.19 39.48z"/><path class="st12" d="m157.88 69.36c-24.38-5.71-50.06-18.7-69.77-30.34 1.04-3.61 2.2-6.89 3.48-9.87 3.61-0.62 7.33-1.12 11.16-1.51 15.4-1.57 30.78-1.42 45.42-0.22 1.73 3.82 3.31 8.15 4.65 13.07 2.38 8.8 4.05 18.49 5.06 28.87z"/><path class="st17" d="m52.63 14.42c-0.81 0.5-27 16.62-37.77 49.35-5.75 4.73-10.16 9.07-13.2 12.34 7.12-30.88 35.54-56.1 50.97-61.69zm16.57 12.74c-1.97 2.8-3.89 5.87-5.71 9.22-12.04 4.26-22.44 9.52-31.21 14.94 6.71-12.31 16.14-22.8 26.77-31.12 2.52 1.8 5.97 4.19 10.15 6.96z"/><path class="st0" d="m221.7 41.92c-2.59-0.8-5.37-1.62-8.3-2.45-11.82-16.82-25.53-25.06-25.53-25.06 9.09 3.29 22.72 13.42 33.83 27.51zm-24.49-6.63c-7.31-1.71-15.24-3.34-23.6-4.72-15-23.56-33.84-30.25-34.76-30.56 20.19 4.05 42.45 16.5 58.36 35.28zm-49.04-7.87c-14.64-1.21-30.02-1.35-45.42 0.22-3.83 0.39-7.54 0.89-11.16 1.51 10.82-25.5 28.42-29.15 28.42-29.15h0.5s16.8 3.48 27.66 27.42zm-46.49-27.41c-0.87 0.3-17.91 6.35-32.48 27.15-4.17-2.76-7.63-5.15-10.15-6.95 13.28-10.38 28.46-17.36 42.63-20.2z"/><path class="st11" d="m120.26 330.92h18.09l6.69-29.2h-49.56l6.69 29.2z"/><path class="st1" d="m51.95 200.22c3.48 7.19 6.8 13.61 9.66 18.97 4.9 9.17 9.56 16.97 14.37 24.07 1.39-4.86 3.12-9.99 5.28-15.31-3.73-8.55-7.47-17.74-11.03-27.31-7.74-20.79-14.61-43.41-18.45-65.38-10.22-7.49-19.82-13.31-28.16-17.76 4.77 29.57 17.34 60.02 28.33 82.72z"/><path class="st2" d="m35.61 199.85c1.97 3.44 4.02 6.9 6.14 10.39 9.93 16.28 21.4 31.32 31.61 43.54 0.3-1.48 0.65-3.01 1.04-4.56-4.13-5.68-8.16-11.44-11.63-16.79-4.97-7.65-12.16-18.74-19.66-32.39-12.84-23.41-26.55-54.36-31.31-88.36-4.04-1.84-7.54-3.26-10.39-4.33 4.11 30.47 15.77 60.39 34.2 92.5z"/><path class="st3" d="m88.86 177.92c1.29 7.7 2.8 15.52 4.43 23.25 0.16 0.74 0.31 1.47 0.47 2.21 3.26-5.27 6.97-10.62 11.17-15.98-3.9-4.93-7.93-9.76-12.09-14.49-1.92-2.17-3.84-4.28-5.78-6.33 0.57 3.77 1.16 7.55 1.8 11.34z"/><path class="st10" d="m226.52 124.23c-4.6 22.34-12.7 43.03-21.32 60.73 1.74 1.75 3.44 3.5 5.09 5.22 12.28-22.83 21.01-44.67 25.88-66.55-2.82 0.11-6.05 0.28-9.65 0.6zm-37.08 6.83c-1.69 10.67-4.12 21.53-7.06 32.3 5.08 4.58 10.63 9.71 16.09 14.97 6.83-16.3 13.21-34.57 16.97-52.81-7.84 1.13-16.67 2.88-26 5.54z"/><path class="st4" d="m116.03 174.52c-4.04 4.28-7.72 8.58-11.09 12.87 14.69 18.56 25.61 36.21 33.52 50.97 2.87-11.1 5.85-23.39 8.52-35.98 1.73-8.12 3.32-16.35 4.68-24.46 1.91-11.32 3.5-22.63 4.72-33.76-13.97 7.29-27.86 17.11-40.35 30.36zm89.17 10.44c-0.33 0.68-0.66 1.35-0.99 2.02-9.75 19.67-20 35.47-26.47 45.44-7.47 11.51-17.54 24.99-25.52 35.3 0.29 0.76 0.57 1.47 0.83 2.15 12.36-13.46 30.78-35.15 45.71-59.63 3.75-6.15 7.25-12.2 10.52-18.19 0.34-0.62 0.68-1.24 1.01-1.87-1.65-1.73-3.35-3.47-5.09-5.22zm-22.82-21.6-0.39 1.4c-9.47 34.19-23.89 67.31-35.3 90.13 1.24 2.71 2.37 5.24 3.36 7.56 10.54-12.54 19.22-25.24 28.86-43.26 5.29-9.92 12.15-23.44 18.7-38.82l0.86-2.04c-5.46-5.26-11.01-10.39-16.09-14.97z"/><path class="st5" d="m129.77 284.65c7.7-7.98 14.29-15.06 20.28-22.2-0.99-2.32-2.11-4.84-3.36-7.56-8.08 16.18-14.67 27.18-16.92 29.76z"/><path class="st6" d="m139.23 284.17c0.41-0.4 5.87-5.65 13.83-14.3-0.27-0.68-0.54-1.39-0.83-2.15-7.14 9.24-12.58 15.95-13 16.45z"/><path class="st7" d="m93.76 203.37c9.1 42.57 21.58 81.61 21.58 81.61h9.84s6.33-19.83 13.28-46.63c-7.91-14.76-18.83-32.4-33.52-50.97-4.21 5.37-7.92 10.72-11.18 15.99z"/><path class="st8" d="m75.97 243.26c9.95 14.77 20.43 26.52 34.77 41.39-3.34-3.82-16.28-26.31-29.49-56.69-2.16 5.31-3.89 10.44-5.28 15.3z"/><path class="st18" d="m73.36 253.77c15.01 17.97 27.31 29.8 27.94 30.4-0.66-0.82-14.21-17.48-26.9-34.96-0.38 1.55-0.73 3.08-1.04 4.56z"/></g></svg>
